<svg width="101" height="115" viewBox="0 0 101 115" fill="none" xmlns="http://www.w3.org/2000/svg">
<g filter="url(#filter0_dddddii_4101_15589)">
<rect x="10.2461" y="3.13721" width="80" height="80" rx="36" fill="url(#paint0_linear_4101_15589)"/>
<rect x="9.56609" y="2.45721" width="81.36" height="81.36" rx="36.68" stroke="url(#paint1_linear_4101_15589)" stroke-width="1.36"/>
<g filter="url(#filter1_dd_4101_15589)">
<path d="M51.4536 56.9772C50.3336 56.9772 49.4536 56.6439 48.8136 55.9772C48.1736 55.3105 47.8536 54.4839 47.8536 53.4972C47.8536 52.4039 48.2803 51.3372 49.1336 50.2972C49.9869 49.2572 51.3869 48.1772 53.3336 47.0572V46.8972C51.2003 47.4305 49.1736 47.8439 47.2536 48.1372C45.3603 48.4305 43.6936 48.5772 42.2536 48.5772C41.0269 48.5772 39.8936 48.4039 38.8536 48.0572C37.8403 47.7105 37.0269 47.1639 36.4136 46.4172C35.8269 45.6439 35.5336 44.6172 35.5336 43.3372C35.5336 41.3105 36.1469 39.8839 37.3736 39.0572C38.6003 38.2305 40.1869 37.8172 42.1336 37.8172C43.5469 37.8172 45.2136 37.9905 47.1336 38.3372C49.0803 38.6839 51.1203 39.1639 53.2536 39.7772V39.6172C51.8936 38.9239 50.8003 38.2839 49.9736 37.6972C49.1469 37.1105 48.5469 36.5105 48.1736 35.8972C47.8003 35.2572 47.6136 34.5372 47.6136 33.7372C47.6136 32.3505 47.9603 31.3505 48.6536 30.7372C49.3736 30.0972 50.2936 29.7772 51.4136 29.7772C52.3469 29.7772 53.2803 30.0039 54.2136 30.4572C55.1469 30.9105 56.1869 31.6572 57.3336 32.6972C58.4803 33.7372 59.8269 35.1372 61.3736 36.8972C62.4669 38.0972 63.2669 39.1372 63.7736 40.0172C64.2803 40.8705 64.6003 41.5905 64.7336 42.1772C64.8936 42.7639 64.9736 43.2572 64.9736 43.6572C64.9736 44.2705 64.7736 45.0039 64.3736 45.8572C63.9736 46.6839 63.1603 47.8439 61.9336 49.3372C59.7469 52.0039 57.8003 53.9505 56.0936 55.1772C54.3869 56.3772 52.8403 56.9772 51.4536 56.9772Z" fill="white"/>
</g>
</g>
<defs>
<filter id="filter0_dddddii_4101_15589" x="-0.000538826" y="-2.96253" width="100.493" height="117.676" filterUnits="userSpaceOnUse" color-interpolation-filters="sRGB">
<feFlood flood-opacity="0" result="BackgroundImageFix"/>
<feColorMatrix in="SourceAlpha" type="matrix" values="0 0 0 0 0 0 0 0 0 0 0 0 0 0 0 0 0 0 127 0" result="hardAlpha"/>
<feOffset/>
<feColorMatrix type="matrix" values="0 0 0 0 0 0 0 0 0 0 0 0 0 0 0 0 0 0 0.24 0"/>
<feBlend mode="normal" in2="BackgroundImageFix" result="effect1_dropShadow_4101_15589"/>
<feColorMatrix in="SourceAlpha" type="matrix" values="0 0 0 0 0 0 0 0 0 0 0 0 0 0 0 0 0 0 127 0" result="hardAlpha"/>
<feOffset dy="1.77745"/>
<feGaussianBlur stdDeviation="1.77745"/>
<feColorMatrix type="matrix" values="0 0 0 0 0 0 0 0 0 0 0 0 0 0 0 0 0 0 0.5 0"/>
<feBlend mode="normal" in2="effect1_dropShadow_4101_15589" result="effect2_dropShadow_4101_15589"/>
<feColorMatrix in="SourceAlpha" type="matrix" values="0 0 0 0 0 0 0 0 0 0 0 0 0 0 0 0 0 0 127 0" result="hardAlpha"/>
<feOffset dy="5.33235"/>
<feGaussianBlur stdDeviation="2.66618"/>
<feColorMatrix type="matrix" values="0 0 0 0 0 0 0 0 0 0 0 0 0 0 0 0 0 0 0.2 0"/>
<feBlend mode="normal" in2="effect2_dropShadow_4101_15589" result="effect3_dropShadow_4101_15589"/>
<feColorMatrix in="SourceAlpha" type="matrix" values="0 0 0 0 0 0 0 0 0 0 0 0 0 0 0 0 0 0 127 0" result="hardAlpha"/>
<feOffset dy="12.4422"/>
<feGaussianBlur stdDeviation="3.5549"/>
<feColorMatrix type="matrix" values="0 0 0 0 0 0 0 0 0 0 0 0 0 0 0 0 0 0 0.12 0"/>
<feBlend mode="normal" in2="effect3_dropShadow_4101_15589" result="effect4_dropShadow_4101_15589"/>
<feColorMatrix in="SourceAlpha" type="matrix" values="0 0 0 0 0 0 0 0 0 0 0 0 0 0 0 0 0 0 127 0" result="hardAlpha"/>
<feOffset dy="21.3294"/>
<feGaussianBlur stdDeviation="4.44363"/>
<feColorMatrix type="matrix" values="0 0 0 0 0 0 0 0 0 0 0 0 0 0 0 0 0 0 0.04 0"/>
<feBlend mode="normal" in2="effect4_dropShadow_4101_15589" result="effect5_dropShadow_4101_15589"/>
<feBlend mode="normal" in="SourceGraphic" in2="effect5_dropShadow_4101_15589" result="shape"/>
<feColorMatrix in="SourceAlpha" type="matrix" values="0 0 0 0 0 0 0 0 0 0 0 0 0 0 0 0 0 0 127 0" result="hardAlpha"/>
<feMorphology radius="2.36994" operator="erode" in="SourceAlpha" result="effect6_innerShadow_4101_15589"/>
<feOffset/>
<feGaussianBlur stdDeviation="1.18497"/>
<feComposite in2="hardAlpha" operator="arithmetic" k2="-1" k3="1"/>
<feColorMatrix type="matrix" values="0 0 0 0 1 0 0 0 0 1 0 0 0 0 1 0 0 0 1 0"/>
<feBlend mode="normal" in2="shape" result="effect6_innerShadow_4101_15589"/>
<feColorMatrix in="SourceAlpha" type="matrix" values="0 0 0 0 0 0 0 0 0 0 0 0 0 0 0 0 0 0 127 0" result="hardAlpha"/>
<feOffset dy="-9.47974"/>
<feGaussianBlur stdDeviation="2.36994"/>
<feComposite in2="hardAlpha" operator="arithmetic" k2="-1" k3="1"/>
<feColorMatrix type="matrix" values="0 0 0 0 0 0 0 0 0 0 0 0 0 0 0 0 0 0 0.15 0"/>
<feBlend mode="normal" in2="effect6_innerShadow_4101_15589" result="effect7_innerShadow_4101_15589"/>
</filter>
<filter id="filter1_dd_4101_15589" x="23.5332" y="20.7773" width="53.4395" height="51.1997" filterUnits="userSpaceOnUse" color-interpolation-filters="sRGB">
<feFlood flood-opacity="0" result="BackgroundImageFix"/>
<feColorMatrix in="SourceAlpha" type="matrix" values="0 0 0 0 0 0 0 0 0 0 0 0 0 0 0 0 0 0 127 0" result="hardAlpha"/>
<feOffset dy="3"/>
<feGaussianBlur stdDeviation="6"/>
<feColorMatrix type="matrix" values="0 0 0 0 0 0 0 0 0 0 0 0 0 0 0 0 0 0 0.25 0"/>
<feBlend mode="normal" in2="BackgroundImageFix" result="effect1_dropShadow_4101_15589"/>
<feColorMatrix in="SourceAlpha" type="matrix" values="0 0 0 0 0 0 0 0 0 0 0 0 0 0 0 0 0 0 127 0" result="hardAlpha"/>
<feOffset dy="3"/>
<feColorMatrix type="matrix" values="0 0 0 0 0.308333 0 0 0 0 0.308333 0 0 0 0 0.308333 0 0 0 0.6 0"/>
<feBlend mode="normal" in2="effect1_dropShadow_4101_15589" result="effect2_dropShadow_4101_15589"/>
<feBlend mode="normal" in="SourceGraphic" in2="effect2_dropShadow_4101_15589" result="shape"/>
</filter>
<linearGradient id="paint0_linear_4101_15589" x1="50.2461" y1="3.13721" x2="50.2461" y2="83.1372" gradientUnits="userSpaceOnUse">
<stop stop-color="#F2C50A"/>
<stop offset="1" stop-color="#E78615"/>
</linearGradient>
<linearGradient id="paint1_linear_4101_15589" x1="50.2461" y1="3.13721" x2="50.2461" y2="83.1372" gradientUnits="userSpaceOnUse">
<stop stop-color="#F2C50A"/>
<stop offset="1" stop-color="#E78615"/>
</linearGradient>
</defs>
</svg>
